<svg t="1733557783260" class="icon" viewBox="0 0 1024 1024" version="1.1"
     xmlns="http://www.w3.org/2000/svg" p-id="970" width="200" height="200" fill="#4d80f0">
	<path
		d="M910.41555707 688.47856541c0-0.14654578 0.03477413-0.21733558 0.07078858-0.36139706l-0.03477413 0c7.49992285-52.33180308 6.67529185-144.43592394-61.73930655-239.15800166-82.26691482-113.96182107-88.58329392-167.33558951-94.22034383-214.49978554l-1.11027207-8.64993644c-1.50768481-12.41914724-9.6943861-22.82887699-21.43048075-27.27989884-11.30639209-4.37899173-24.8382945-2.0094175-34.17128353 6.10152659-62.41863453 54.70261763-81.11690243 122.32611643-87.86670873 179.82676811C537.51700108 229.82952368 549.86411698 100.3971713 555.28383252 43.68513494c1.04072502-11.52248491-3.80522647-22.61402571-12.92088115-29.68424599-8.97407628-6.9994317-21.64657357-8.93806061-31.84020927-5.13283413-246.65916726 88.08280155-247.08886983 361.23200959-221.96369271 527.27476556-43.14535982-36.89852777-76.48952805-99.6748335-88.87265963-130.14893756-5.17009135-12.52719426-17.30235597-20.53133411-32.08983469-20.88900533-14.06965199 0.35891276-26.20191661 9.18768481-30.93982109 22.39793167-1.18602805 3.44507097-116.72632252 349.17053357 146.55338845 532.51564673 83.02075722 51.11348398 166.83385561 77.02851918 249.28084878 77.02851918 187.25590236-8.32703814 314.74962583-95.62246591 368.0898629-285.56959683C901.47873921 729.10904798 906.75439328 713.38764971 910.41555707 688.47856541M533.10199367 949.85318005c-70.17190741 0-141.88627376-22.32465878-212.95732659-66.11332967-92.13765344-64.17966937-140.48663476-159.00855137-143.79012855-281.90843306-0.7538424-28.2846082 1.00470935-57.86204874 5.27565408-88.08280154 32.59281013 49.17361354 82.2321419 104.09232399 146.26650703 116.00849578 11.19958661 1.79456622 22.36315875-1.72253609 30.08041598-9.69190302 7.82282115-7.96812539 11.19710352-19.23974334 8.93681784-30.36605704l-1.15001359-5.31042699c-24.22727202-112.88756466-60.19436453-383.41633275 118.62769422-489.30198142-5.02354557 155.77833168 36.54085654 295.51112404 126.99447387 426.84608968 8.21650804 11.91741334 23.57899233 17.29987167 37.72191721 13.06494262 14.14168334-4.52181166 23.68952366-17.51596571 23.68952365-32.26867029l0-8.93806061c0-67.26334327 0-131.08161558 26.88372766-184.09771281 10.30168272 37.15063747 32.84243434 93.39447129 94.36440653 178.60720747 52.69195739 73.04197279 55.20311001 143.82490268 50.39317416 184.88632812-0.07203135 0.35767122-22.79286132 128.13951886-79.86381043 186.71939433-6.31637789 5.52776257-14.14168334 11.98571884-23.36662535 18.80755648-7.1074775 4.16414045-11.59327349 7.46887456-14.71544737 10.33645564-43.28693821 29.00367648-109.58407088 60.73211411-193.35867051 60.80414423L533.10199367 949.85442282z"
		p-id="970"></path>
</svg>
